<mxfile host="app.diagrams.net" modified="2020-09-01T08:22:27.367Z" agent="5.0 (Windows)" etag="VOPeyuSGaE6s_T6ng_bW" version="13.6.6" type="github">
  <diagram id="iS4VbfkvWqATDpr2NzcE" name="Page-1">
    <mxGraphModel dx="1038" dy="547" grid="1" gridSize="10" guides="1" tooltips="1" connect="1" arrows="1" fold="1" page="1" pageScale="1" pageWidth="1169" pageHeight="827" math="0" shadow="0">
      <root>
        <mxCell id="0" />
        <mxCell id="1" parent="0" />
        <mxCell id="rXSO16KiNVPudHFig_VC-1" value="Product Development - Mini Exhibition" style="swimlane;html=1;childLayout=stackLayout;resizeParent=1;resizeParentMax=0;horizontal=1;startSize=20;horizontalStack=0;" vertex="1" parent="1">
          <mxGeometry x="40" y="32" width="1085" height="720" as="geometry" />
        </mxCell>
        <mxCell id="rXSO16KiNVPudHFig_VC-2" value="HOD" style="swimlane;html=1;startSize=20;horizontal=0;" vertex="1" parent="rXSO16KiNVPudHFig_VC-1">
          <mxGeometry y="20" width="1085" height="150" as="geometry" />
        </mxCell>
        <mxCell id="rXSO16KiNVPudHFig_VC-5" value="Start" style="rounded=1;whiteSpace=wrap;html=1;" vertex="1" parent="rXSO16KiNVPudHFig_VC-2">
          <mxGeometry x="115" y="10" width="80" height="30" as="geometry" />
        </mxCell>
        <mxCell id="rXSO16KiNVPudHFig_VC-30" value="" style="edgeStyle=orthogonalEdgeStyle;rounded=0;orthogonalLoop=1;jettySize=auto;html=1;" edge="1" parent="rXSO16KiNVPudHFig_VC-2" target="rXSO16KiNVPudHFig_VC-29">
          <mxGeometry relative="1" as="geometry">
            <mxPoint x="470" y="105" as="sourcePoint" />
          </mxGeometry>
        </mxCell>
        <mxCell id="rXSO16KiNVPudHFig_VC-67" value="Send invitations" style="whiteSpace=wrap;html=1;rounded=0;" vertex="1" parent="rXSO16KiNVPudHFig_VC-2">
          <mxGeometry x="610" y="75" width="80" height="60" as="geometry" />
        </mxCell>
        <mxCell id="rXSO16KiNVPudHFig_VC-29" value="Develop selection criteria" style="whiteSpace=wrap;html=1;rounded=0;" vertex="1" parent="rXSO16KiNVPudHFig_VC-2">
          <mxGeometry x="520" y="75" width="80" height="60" as="geometry" />
        </mxCell>
        <mxCell id="rXSO16KiNVPudHFig_VC-17" value="&lt;br/&gt;&lt;p style=&quot;margin-bottom: 0in ; line-height: 100%&quot;&gt;&lt;font face=&quot;Arial, serif&quot;&gt;&lt;span lang=&quot;en-US&quot;&gt;Initiates development of display layout and concepts for the mini exhibition&lt;/span&gt;&lt;/font&gt;&lt;/p&gt;&lt;br/&gt;" style="whiteSpace=wrap;html=1;rounded=0;" vertex="1" parent="rXSO16KiNVPudHFig_VC-2">
          <mxGeometry x="370" y="70" width="120" height="70" as="geometry" />
        </mxCell>
        <mxCell id="rXSO16KiNVPudHFig_VC-13" value="Start recruitment of selection committee (SC)" style="whiteSpace=wrap;html=1;rounded=0;" vertex="1" parent="rXSO16KiNVPudHFig_VC-2">
          <mxGeometry x="240" y="70" width="100" height="70" as="geometry" />
        </mxCell>
        <mxCell id="rXSO16KiNVPudHFig_VC-6" value="Plan for necessary procurement,exhibition programme, media invites, allowances" style="rounded=0;whiteSpace=wrap;html=1;" vertex="1" parent="rXSO16KiNVPudHFig_VC-2">
          <mxGeometry x="80" y="80" width="150" height="60" as="geometry" />
        </mxCell>
        <mxCell id="rXSO16KiNVPudHFig_VC-8" value="" style="edgeStyle=orthogonalEdgeStyle;rounded=0;orthogonalLoop=1;jettySize=auto;html=1;entryX=0.5;entryY=0;entryDx=0;entryDy=0;" edge="1" parent="rXSO16KiNVPudHFig_VC-2" source="rXSO16KiNVPudHFig_VC-5" target="rXSO16KiNVPudHFig_VC-6">
          <mxGeometry relative="1" as="geometry">
            <mxPoint x="140" y="80" as="targetPoint" />
          </mxGeometry>
        </mxCell>
        <mxCell id="rXSO16KiNVPudHFig_VC-18" value="" style="edgeStyle=orthogonalEdgeStyle;rounded=0;orthogonalLoop=1;jettySize=auto;html=1;" edge="1" parent="rXSO16KiNVPudHFig_VC-2" source="rXSO16KiNVPudHFig_VC-13" target="rXSO16KiNVPudHFig_VC-17">
          <mxGeometry relative="1" as="geometry" />
        </mxCell>
        <mxCell id="rXSO16KiNVPudHFig_VC-78" value="HOD&#39;s input" style="shape=parallelogram;perimeter=parallelogramPerimeter;whiteSpace=wrap;html=1;fixedSize=1;" vertex="1" parent="rXSO16KiNVPudHFig_VC-2">
          <mxGeometry x="800" y="80" width="120" height="60" as="geometry" />
        </mxCell>
        <mxCell id="rXSO16KiNVPudHFig_VC-85" value="End" style="rounded=1;whiteSpace=wrap;html=1;" vertex="1" parent="rXSO16KiNVPudHFig_VC-2">
          <mxGeometry x="1000" y="90" width="60" height="45" as="geometry" />
        </mxCell>
        <mxCell id="rXSO16KiNVPudHFig_VC-3" value="CEO" style="swimlane;html=1;startSize=20;horizontal=0;" vertex="1" parent="rXSO16KiNVPudHFig_VC-1">
          <mxGeometry y="170" width="1085" height="110" as="geometry" />
        </mxCell>
        <mxCell id="rXSO16KiNVPudHFig_VC-28" value="no" style="text;html=1;strokeColor=none;fillColor=none;align=center;verticalAlign=middle;whiteSpace=wrap;rounded=0;" vertex="1" parent="rXSO16KiNVPudHFig_VC-3">
          <mxGeometry x="53" y="20" width="40" height="20" as="geometry" />
        </mxCell>
        <mxCell id="rXSO16KiNVPudHFig_VC-72" value="no" style="text;html=1;strokeColor=none;fillColor=none;align=center;verticalAlign=middle;whiteSpace=wrap;rounded=0;" vertex="1" parent="rXSO16KiNVPudHFig_VC-3">
          <mxGeometry x="569" y="42" width="40" height="20" as="geometry" />
        </mxCell>
        <mxCell id="rXSO16KiNVPudHFig_VC-81" value="Approved?" style="rhombus;whiteSpace=wrap;html=1;rounded=0;" vertex="1" parent="rXSO16KiNVPudHFig_VC-3">
          <mxGeometry x="885" y="15" width="80" height="80" as="geometry" />
        </mxCell>
        <mxCell id="rXSO16KiNVPudHFig_VC-65" value="Approved?" style="rhombus;whiteSpace=wrap;html=1;rounded=0;" vertex="1" parent="rXSO16KiNVPudHFig_VC-3">
          <mxGeometry x="610" y="20" width="80" height="80" as="geometry" />
        </mxCell>
        <mxCell id="rXSO16KiNVPudHFig_VC-9" value="Approved?" style="rhombus;whiteSpace=wrap;html=1;rounded=0;" vertex="1" parent="rXSO16KiNVPudHFig_VC-3">
          <mxGeometry x="115" y="40" width="80" height="80" as="geometry" />
        </mxCell>
        <mxCell id="rXSO16KiNVPudHFig_VC-69" value="yes" style="text;html=1;strokeColor=none;fillColor=none;align=center;verticalAlign=middle;whiteSpace=wrap;rounded=0;" vertex="1" parent="rXSO16KiNVPudHFig_VC-3">
          <mxGeometry x="621" width="40" height="20" as="geometry" />
        </mxCell>
        <mxCell id="rXSO16KiNVPudHFig_VC-86" value="yes" style="text;html=1;strokeColor=none;fillColor=none;align=center;verticalAlign=middle;whiteSpace=wrap;rounded=0;" vertex="1" parent="rXSO16KiNVPudHFig_VC-3">
          <mxGeometry x="954" width="40" height="20" as="geometry" />
        </mxCell>
        <mxCell id="rXSO16KiNVPudHFig_VC-4" value="Procurement" style="swimlane;html=1;startSize=20;horizontal=0;" vertex="1" parent="rXSO16KiNVPudHFig_VC-1">
          <mxGeometry y="280" width="1085" height="110" as="geometry" />
        </mxCell>
        <mxCell id="rXSO16KiNVPudHFig_VC-25" value="yes" style="text;html=1;strokeColor=none;fillColor=none;align=center;verticalAlign=middle;whiteSpace=wrap;rounded=0;" vertex="1" parent="rXSO16KiNVPudHFig_VC-4">
          <mxGeometry x="250" y="15" width="40" height="20" as="geometry" />
        </mxCell>
        <mxCell id="rXSO16KiNVPudHFig_VC-11" value="Undertake necessary procurement" style="whiteSpace=wrap;html=1;rounded=0;" vertex="1" parent="rXSO16KiNVPudHFig_VC-4">
          <mxGeometry x="95" y="35" width="120" height="60" as="geometry" />
        </mxCell>
        <mxCell id="rXSO16KiNVPudHFig_VC-91" value="no" style="text;html=1;strokeColor=none;fillColor=none;align=center;verticalAlign=middle;whiteSpace=wrap;rounded=0;" vertex="1" parent="rXSO16KiNVPudHFig_VC-4">
          <mxGeometry x="861" y="45" width="40" height="20" as="geometry" />
        </mxCell>
        <mxCell id="rXSO16KiNVPudHFig_VC-10" value="" style="edgeStyle=orthogonalEdgeStyle;rounded=0;orthogonalLoop=1;jettySize=auto;html=1;" edge="1" parent="rXSO16KiNVPudHFig_VC-1" source="rXSO16KiNVPudHFig_VC-6" target="rXSO16KiNVPudHFig_VC-9">
          <mxGeometry relative="1" as="geometry" />
        </mxCell>
        <mxCell id="rXSO16KiNVPudHFig_VC-12" value="" style="edgeStyle=orthogonalEdgeStyle;rounded=0;orthogonalLoop=1;jettySize=auto;html=1;" edge="1" parent="rXSO16KiNVPudHFig_VC-1" source="rXSO16KiNVPudHFig_VC-9" target="rXSO16KiNVPudHFig_VC-11">
          <mxGeometry relative="1" as="geometry" />
        </mxCell>
        <mxCell id="rXSO16KiNVPudHFig_VC-14" value="" style="edgeStyle=orthogonalEdgeStyle;rounded=0;orthogonalLoop=1;jettySize=auto;html=1;" edge="1" parent="rXSO16KiNVPudHFig_VC-1" source="rXSO16KiNVPudHFig_VC-11" target="rXSO16KiNVPudHFig_VC-13">
          <mxGeometry relative="1" as="geometry" />
        </mxCell>
        <mxCell id="rXSO16KiNVPudHFig_VC-15" value="Product Development" style="swimlane;html=1;startSize=20;horizontal=0;" vertex="1" parent="rXSO16KiNVPudHFig_VC-1">
          <mxGeometry y="390" width="1085" height="110" as="geometry" />
        </mxCell>
        <mxCell id="rXSO16KiNVPudHFig_VC-73" value="Perform exhibition and select successful companies/products" style="whiteSpace=wrap;html=1;rounded=0;" vertex="1" parent="rXSO16KiNVPudHFig_VC-15">
          <mxGeometry x="700" y="60" width="120" height="80" as="geometry" />
        </mxCell>
        <mxCell id="rXSO16KiNVPudHFig_VC-20" value="Branding Unit" style="swimlane;html=1;startSize=20;horizontal=0;" vertex="1" parent="rXSO16KiNVPudHFig_VC-1">
          <mxGeometry y="500" width="1085" height="110" as="geometry" />
        </mxCell>
        <mxCell id="rXSO16KiNVPudHFig_VC-22" value="Unit&#39;s input" style="shape=parallelogram;perimeter=parallelogramPerimeter;whiteSpace=wrap;html=1;fixedSize=1;" vertex="1" parent="rXSO16KiNVPudHFig_VC-20">
          <mxGeometry x="370" y="10" width="120" height="60" as="geometry" />
        </mxCell>
        <mxCell id="rXSO16KiNVPudHFig_VC-63" value="Selection of participants" style="whiteSpace=wrap;html=1;rounded=0;" vertex="1" parent="rXSO16KiNVPudHFig_VC-20">
          <mxGeometry x="500" y="-50" width="120" height="208" as="geometry" />
        </mxCell>
        <mxCell id="rXSO16KiNVPudHFig_VC-24" value="" style="edgeStyle=orthogonalEdgeStyle;rounded=0;orthogonalLoop=1;jettySize=auto;html=1;entryX=0.5;entryY=1;entryDx=0;entryDy=0;" edge="1" parent="rXSO16KiNVPudHFig_VC-1" source="rXSO16KiNVPudHFig_VC-22" target="rXSO16KiNVPudHFig_VC-17">
          <mxGeometry relative="1" as="geometry">
            <mxPoint x="480" y="500" as="targetPoint" />
          </mxGeometry>
        </mxCell>
        <mxCell id="rXSO16KiNVPudHFig_VC-27" value="" style="edgeStyle=orthogonalEdgeStyle;rounded=0;orthogonalLoop=1;jettySize=auto;html=1;entryX=0;entryY=0.5;entryDx=0;entryDy=0;" edge="1" parent="rXSO16KiNVPudHFig_VC-1" source="rXSO16KiNVPudHFig_VC-9" target="rXSO16KiNVPudHFig_VC-6">
          <mxGeometry relative="1" as="geometry">
            <mxPoint x="55" y="250" as="targetPoint" />
            <Array as="points">
              <mxPoint x="60" y="250" />
              <mxPoint x="60" y="130" />
            </Array>
          </mxGeometry>
        </mxCell>
        <mxCell id="rXSO16KiNVPudHFig_VC-61" value="Selection Committee" style="swimlane;html=1;startSize=20;horizontal=0;" vertex="1" parent="rXSO16KiNVPudHFig_VC-1">
          <mxGeometry y="610" width="1085" height="110" as="geometry" />
        </mxCell>
        <mxCell id="rXSO16KiNVPudHFig_VC-64" value="" style="edgeStyle=orthogonalEdgeStyle;rounded=0;orthogonalLoop=1;jettySize=auto;html=1;" edge="1" parent="rXSO16KiNVPudHFig_VC-1" source="rXSO16KiNVPudHFig_VC-29" target="rXSO16KiNVPudHFig_VC-63">
          <mxGeometry relative="1" as="geometry" />
        </mxCell>
        <mxCell id="rXSO16KiNVPudHFig_VC-66" value="" style="edgeStyle=orthogonalEdgeStyle;rounded=0;orthogonalLoop=1;jettySize=auto;html=1;" edge="1" parent="rXSO16KiNVPudHFig_VC-1" source="rXSO16KiNVPudHFig_VC-63" target="rXSO16KiNVPudHFig_VC-65">
          <mxGeometry relative="1" as="geometry">
            <Array as="points">
              <mxPoint x="650" y="580" />
            </Array>
          </mxGeometry>
        </mxCell>
        <mxCell id="rXSO16KiNVPudHFig_VC-68" value="" style="edgeStyle=orthogonalEdgeStyle;rounded=0;orthogonalLoop=1;jettySize=auto;html=1;" edge="1" parent="rXSO16KiNVPudHFig_VC-1" source="rXSO16KiNVPudHFig_VC-65" target="rXSO16KiNVPudHFig_VC-67">
          <mxGeometry relative="1" as="geometry" />
        </mxCell>
        <mxCell id="rXSO16KiNVPudHFig_VC-71" value="" style="edgeStyle=orthogonalEdgeStyle;rounded=0;orthogonalLoop=1;jettySize=auto;html=1;entryX=0.5;entryY=0;entryDx=0;entryDy=0;" edge="1" parent="rXSO16KiNVPudHFig_VC-1" source="rXSO16KiNVPudHFig_VC-65" target="rXSO16KiNVPudHFig_VC-63">
          <mxGeometry relative="1" as="geometry">
            <mxPoint x="550" y="230" as="targetPoint" />
            <Array as="points">
              <mxPoint x="560" y="230" />
            </Array>
          </mxGeometry>
        </mxCell>
        <mxCell id="rXSO16KiNVPudHFig_VC-74" value="" style="edgeStyle=orthogonalEdgeStyle;rounded=0;orthogonalLoop=1;jettySize=auto;html=1;" edge="1" parent="rXSO16KiNVPudHFig_VC-1" source="rXSO16KiNVPudHFig_VC-67" target="rXSO16KiNVPudHFig_VC-73">
          <mxGeometry relative="1" as="geometry" />
        </mxCell>
        <mxCell id="rXSO16KiNVPudHFig_VC-84" value="" style="edgeStyle=orthogonalEdgeStyle;rounded=0;orthogonalLoop=1;jettySize=auto;html=1;entryX=0;entryY=0.5;entryDx=0;entryDy=0;" edge="1" parent="rXSO16KiNVPudHFig_VC-1" source="rXSO16KiNVPudHFig_VC-81" target="rXSO16KiNVPudHFig_VC-85">
          <mxGeometry relative="1" as="geometry">
            <mxPoint x="1025" y="225" as="targetPoint" />
            <Array as="points">
              <mxPoint x="985" y="225" />
              <mxPoint x="985" y="133" />
            </Array>
          </mxGeometry>
        </mxCell>
        <mxCell id="rXSO16KiNVPudHFig_VC-93" value="" style="edgeStyle=orthogonalEdgeStyle;rounded=0;orthogonalLoop=1;jettySize=auto;html=1;entryX=0.5;entryY=0;entryDx=0;entryDy=0;" edge="1" parent="rXSO16KiNVPudHFig_VC-1" source="rXSO16KiNVPudHFig_VC-78" target="rXSO16KiNVPudHFig_VC-73">
          <mxGeometry relative="1" as="geometry">
            <mxPoint x="710" y="130" as="targetPoint" />
            <Array as="points">
              <mxPoint x="780" y="130" />
              <mxPoint x="780" y="305" />
              <mxPoint x="760" y="305" />
            </Array>
          </mxGeometry>
        </mxCell>
        <mxCell id="rXSO16KiNVPudHFig_VC-82" value="" style="edgeStyle=orthogonalEdgeStyle;rounded=0;orthogonalLoop=1;jettySize=auto;html=1;" edge="1" parent="1" source="rXSO16KiNVPudHFig_VC-75" target="rXSO16KiNVPudHFig_VC-81">
          <mxGeometry relative="1" as="geometry" />
        </mxCell>
        <mxCell id="rXSO16KiNVPudHFig_VC-75" value="Ranking of participant" style="whiteSpace=wrap;html=1;rounded=0;" vertex="1" parent="1">
          <mxGeometry x="920" y="507" width="90" height="60" as="geometry" />
        </mxCell>
        <mxCell id="rXSO16KiNVPudHFig_VC-76" value="" style="edgeStyle=orthogonalEdgeStyle;rounded=0;orthogonalLoop=1;jettySize=auto;html=1;" edge="1" parent="1" source="rXSO16KiNVPudHFig_VC-73" target="rXSO16KiNVPudHFig_VC-75">
          <mxGeometry relative="1" as="geometry" />
        </mxCell>
        <mxCell id="rXSO16KiNVPudHFig_VC-80" value="" style="edgeStyle=orthogonalEdgeStyle;rounded=0;orthogonalLoop=1;jettySize=auto;html=1;entryX=0;entryY=0.5;entryDx=0;entryDy=0;" edge="1" parent="1" source="rXSO16KiNVPudHFig_VC-78" target="rXSO16KiNVPudHFig_VC-75">
          <mxGeometry relative="1" as="geometry">
            <mxPoint x="900" y="272" as="targetPoint" />
          </mxGeometry>
        </mxCell>
        <mxCell id="rXSO16KiNVPudHFig_VC-88" value="" style="edgeStyle=orthogonalEdgeStyle;rounded=0;orthogonalLoop=1;jettySize=auto;html=1;entryX=0.022;entryY=0.367;entryDx=0;entryDy=0;entryPerimeter=0;" edge="1" parent="1" source="rXSO16KiNVPudHFig_VC-81" target="rXSO16KiNVPudHFig_VC-75">
          <mxGeometry relative="1" as="geometry">
            <mxPoint x="865" y="257" as="targetPoint" />
            <Array as="points">
              <mxPoint x="910" y="257" />
              <mxPoint x="910" y="529" />
            </Array>
          </mxGeometry>
        </mxCell>
      </root>
    </mxGraphModel>
  </diagram>
</mxfile>
